<svg width="25" height="23" viewBox="0 0 25 23" fill="none" xmlns="http://www.w3.org/2000/svg">
<path d="M9.375 5.04693V8.41156H5.625V5.04693H9.375ZM11.25 3.36462H3.75V10.0939H11.25V3.36462ZM9.375 14.0193V17.3839H5.625V14.0193H9.375ZM11.25 12.3369H3.75V19.0662H11.25V12.3369ZM19.375 5.04693V8.41156H15.625V5.04693H19.375ZM21.25 3.36462H13.75V10.0939H21.25V3.36462ZM13.75 12.3369H15.625V14.0193H13.75V12.3369ZM15.625 14.0193H17.5V15.7016H15.625V14.0193ZM17.5 12.3369H19.375V14.0193H17.5V12.3369ZM13.75 15.7016H15.625V17.3839H13.75V15.7016ZM15.625 17.3839H17.5V19.0662H15.625V17.3839ZM17.5 15.7016H19.375V17.3839H17.5V15.7016ZM19.375 14.0193H21.25V15.7016H19.375V14.0193ZM19.375 17.3839H21.25V19.0662H19.375V17.3839ZM25 5.6077H22.5V2.24308H18.75V0H25V5.6077ZM25 22.4308V16.8231H22.5V20.1877H18.75V22.4308H25ZM0 22.4308H6.25V20.1877H2.5V16.8231H0V22.4308ZM0 0V5.6077H2.5V2.24308H6.25V0H0Z" fill="#F56700"/>
</svg>
