<svg width="22" height="21" viewBox="0 0 22 21" fill="none" xmlns="http://www.w3.org/2000/svg">
<path d="M14.7944 15.1224L11.6685 11.987C11.5543 11.8724 11.4193 11.8516 11.3466 11.8516C11.2739 11.8516 11.1389 11.8724 11.0247 11.987L7.88844 15.1328C7.53535 15.487 6.98495 16.0599 5.14682 16.0599L8.99962 19.9141C10.2147 21.1328 12.1878 21.1328 13.4028 19.9141L17.266 16.0495C16.321 16.0495 15.5317 15.862 14.7944 15.1224Z" fill="#F56700"/>
<path d="M7.88844 5.69531L11.0247 8.84114C11.1078 8.92448 11.2324 8.97656 11.3466 8.97656C11.4608 8.97656 11.5855 8.92448 11.6685 8.84114L14.7736 5.72656C15.511 4.95573 16.3521 4.77865 17.2972 4.77865L13.434 0.914062C12.2189 -0.304687 10.2458 -0.304687 9.03078 0.914062L5.17798 4.76823C7.00572 4.76823 7.56651 5.37239 7.88844 5.69531Z" fill="#F56700"/>
<path d="M20.6723 8.17448L18.3356 5.82031H17.0271C16.4664 5.82031 15.9056 6.04948 15.5213 6.45573L12.4059 9.58073C12.1151 9.8724 11.7308 10.0182 11.3466 10.0182C10.9727 10.0182 10.5781 9.86198 10.2873 9.58073L7.1511 6.42448C6.75647 6.02865 6.21646 5.79948 5.64529 5.79948H4.11871L1.74056 8.19531C0.525526 9.41406 0.525526 11.3932 1.74056 12.612L4.11871 15.0078H5.65567C6.21646 15.0078 6.75647 14.7786 7.16148 14.3828L10.2977 11.237C10.5885 10.9453 10.9727 10.7995 11.357 10.7995C11.7412 10.7995 12.1255 10.9453 12.4162 11.237L15.5421 14.3724C15.9367 14.7682 16.4767 14.9974 17.0479 14.9974H18.3564L20.693 12.6432C21.9081 11.4141 21.9081 9.41406 20.6723 8.17448Z" fill="#F56700"/>
</svg>
