<svg width="15" height="24" viewBox="0 0 15 24" fill="none" xmlns="http://www.w3.org/2000/svg">
<path d="M12.7283 18.9844V5.01562H2.69709V18.9844H12.7283ZM12.7283 1.03125C13.2596 1.03125 13.7127 1.23437 14.0877 1.64062C14.494 2.01562 14.6971 2.46875 14.6971 3V21C14.6971 21.5312 14.494 22 14.0877 22.4062C13.7127 22.8125 13.2596 23.0156 12.7283 23.0156H2.69709C2.16584 23.0156 1.69709 22.8125 1.29084 22.4062C0.915843 22 0.728343 21.5312 0.728343 21V3C0.728343 2.46875 0.915843 2 1.29084 1.59375C1.69709 1.1875 2.16584 0.984375 2.69709 0.984375L12.7283 1.03125Z" fill="#F56700"/>
</svg>
